<?xml version="1.0" encoding="UTF-8"?><svg id="uuid-2f8e1683-ef55-4a73-bb06-1d93b5de1644" xmlns="http://www.w3.org/2000/svg" viewBox="0 0 152.38 92.89"><path d="m89.1,29.71l.91-.34c7.54-2.84,11.21-7.13,11.21-13.13,0-4.15-1.66-7.53-5.07-10.34-3.61-2.93-8.58-4.42-14.77-4.42,0,0-35.33,0-36.82,0v7.83c.23,0,1.87,0,4.29,0v38.39h-4.29v7.81h25.11v-7.81h-4.43v-16.54h9.1l10.41,16.54h-5.86v7.81h27.19v-7.81h-5.14l-11.84-17.99Zm-7.17-8.26l-.02.02c-1.94,1.52-4.8,2.28-8.5,2.28h-8.17v-14.44c5.57,0,10.07,0,10.07,0,3.15,0,5.59.88,7.26,2.61,1.22,1.21,1.84,2.73,1.84,4.53,0,1.94-.84,3.62-2.48,5.01h0Z" fill="#c03" stroke-width="0"/><path d="m75.31,9.31h-10.07s0,14.44,0,14.44h8.17c3.7,0,6.56-.77,8.5-2.28l.02-.02c1.65-1.38,2.48-3.07,2.48-5.01,0-1.8-.62-3.32-1.84-4.53-1.67-1.72-4.12-2.61-7.26-2.61h0Zm5.69,10.98h0c-1.67,1.31-4.22,1.97-7.58,1.97h-6.68v-11.47h8.59c2.73,0,4.81.72,6.2,2.15l.02.02c.94.93,1.4,2.06,1.4,3.47,0,1.49-.63,2.75-1.93,3.85h0Z" stroke-width="0"/><path d="m101.74,46.22l-10.39-15.78c7.53-3.06,11.35-7.83,11.35-14.19,0-4.62-1.84-8.38-5.62-11.49C93.19,1.59,87.91,0,81.38,0h-38.3s0,10.79,0,10.79h4.29v35.43h-4.29v10.78h28.08v-10.78h-4.43v-13.57h6.8l8.54,13.57h-4.65v10.78h30.16v-10.78h-5.83Zm4.34,9.3h-27.19v-7.81h5.86l-10.41-16.54h-9.1v16.54h4.43v7.81h-25.11v-7.81h4.29V9.31h-4.29V1.48h36.82c6.18,0,11.15,1.49,14.77,4.42,3.41,2.81,5.07,6.19,5.07,10.34,0,5.99-3.67,10.28-11.21,13.13l-.91.34,11.84,17.99h5.14v7.81Z" stroke-width="0"/><path d="m22,76.11v-12.85h7.32l-.33,2.11h-4.36v2.98h3.64v2.11h-3.64v3.44h4.86v2.22h-7.49Z" stroke-width="0"/><path d="m37.57,76.11l-2.2-4.92c-.72-1.61-1.5-3.42-1.74-4.22.09,1.05.11,2.57.13,3.64l.07,5.49h-2.5v-12.85h2.87l2.46,5.14c.65,1.37,1.15,2.72,1.41,3.64-.09-1-.19-2.64-.2-3.53l-.06-5.25h2.46v12.85h-2.7Z" stroke-width="0"/><path d="m48.25,76.26c-1.92,0-3.35-.63-4.38-1.96-.94-1.2-1.37-2.57-1.37-4.49,0-2.72.89-4.64,2.68-5.84.94-.63,1.9-.91,3.13-.91,1.55,0,2.96.5,4.09,1.48l-1.37,1.61c-.83-.68-1.7-1-2.68-1-.76,0-1.41.22-1.85.65-.87.83-1.09,2.22-1.09,4.14s.31,3.01.96,3.66c.48.46,1.18.72,2.02.72.57,0,1.04-.09,1.46-.31v-2.92h-1.96l-.33-2.11h4.98v6.14c-1.31.78-2.76,1.15-4.27,1.15Z" stroke-width="0"/><path d="m55.11,76.11v-12.85h2.7v12.85h-2.7Z" stroke-width="0"/><path d="m66.82,76.11l-2.2-4.92c-.72-1.61-1.5-3.42-1.74-4.22.09,1.05.11,2.57.13,3.64l.07,5.49h-2.5v-12.85h2.87l2.46,5.14c.65,1.37,1.15,2.72,1.41,3.64-.09-1-.19-2.64-.2-3.53l-.06-5.25h2.46v12.85h-2.7Z" stroke-width="0"/><path d="m72.3,76.11v-12.85h7.32l-.33,2.11h-4.36v2.98h3.64v2.11h-3.64v3.44h4.86v2.22h-7.49Z" stroke-width="0"/><path d="m81.64,76.11v-12.85h7.32l-.33,2.11h-4.37v2.98h3.64v2.11h-3.64v3.44h4.86v2.22h-7.49Z" stroke-width="0"/><path d="m97.25,76.11c-.5-.85-.7-1.2-1.2-2.11-1.28-2.31-1.66-2.94-2.13-3.14-.13-.06-.24-.09-.41-.11v5.36h-2.53v-12.85h4.79c2.27,0,3.77,1.52,3.77,3.77,0,1.92-1.28,3.51-2.87,3.55.26.2.37.31.54.54.67.83,2.63,4.18,3.09,4.99h-3.05Zm-1.35-10.6c-.3-.11-.83-.18-1.46-.18h-.92v3.48h.87c1.11,0,1.59-.11,1.94-.43.31-.3.5-.76.5-1.29,0-.8-.31-1.35-.92-1.57Z" stroke-width="0"/><path d="m101.97,76.11v-12.85h2.7v12.85h-2.7Z" stroke-width="0"/><path d="m113.68,76.11l-2.2-4.92c-.72-1.61-1.5-3.42-1.74-4.22.09,1.05.11,2.57.13,3.64l.07,5.49h-2.5v-12.85h2.87l2.46,5.14c.65,1.37,1.15,2.72,1.41,3.64-.09-1-.19-2.64-.2-3.53l-.06-5.25h2.46v12.85h-2.7Z" stroke-width="0"/><path d="m124.35,76.26c-1.92,0-3.35-.63-4.38-1.96-.94-1.2-1.37-2.57-1.37-4.49,0-2.72.89-4.64,2.68-5.84.94-.63,1.91-.91,3.13-.91,1.55,0,2.96.5,4.09,1.48l-1.37,1.61c-.83-.68-1.7-1-2.68-1-.76,0-1.41.22-1.85.65-.87.83-1.09,2.22-1.09,4.14s.31,3.01.96,3.66c.48.46,1.18.72,2.02.72.57,0,1.04-.09,1.46-.31v-2.92h-1.96l-.33-2.11h4.97v6.14c-1.31.78-2.75,1.15-4.27,1.15Z" stroke-width="0"/><path d="m6.27,92.61v-5.73h-3.7v5.73H0v-12.85h2.57v4.99h3.7v-4.99h2.63v12.85h-2.63Z" stroke-width="0"/><path d="m19.35,92.22c-.78.42-1.5.59-2.57.59-1.94,0-3.2-.54-4.18-1.81-.98-1.26-1.48-2.89-1.48-4.77,0-2.77,1.05-4.99,2.9-6.01.76-.41,1.7-.63,2.66-.63,3.42,0,5.53,2.5,5.53,6.53,0,2.9-1,5.09-2.87,6.1Zm-.44-9.01c-.2-.65-.89-1.63-2.26-1.63-.87,0-1.63.44-2,1.13-.44.83-.65,1.96-.65,3.51,0,2.22.37,3.61,1.15,4.16.41.3.92.44,1.54.44,1.79,0,2.55-1.37,2.55-4.64,0-1.31-.11-2.26-.33-2.98Z" stroke-width="0"/><path d="m30.67,92.61l-2.2-4.92c-.72-1.61-1.5-3.42-1.74-4.22.09,1.05.11,2.57.13,3.64l.07,5.49h-2.5v-12.85h2.87l2.46,5.14c.65,1.37,1.15,2.72,1.41,3.64-.09-1-.19-2.64-.2-3.53l-.06-5.25h2.46v12.85h-2.7Z" stroke-width="0"/><path d="m43.82,92.22c-.78.42-1.5.59-2.57.59-1.94,0-3.2-.54-4.18-1.81-.98-1.26-1.48-2.89-1.48-4.77,0-2.77,1.05-4.99,2.9-6.01.76-.41,1.7-.63,2.66-.63,3.42,0,5.53,2.5,5.53,6.53,0,2.9-1,5.09-2.87,6.1Zm-.44-9.01c-.2-.65-.89-1.63-2.26-1.63-.87,0-1.63.44-2,1.13-.44.83-.65,1.96-.65,3.51,0,2.22.37,3.61,1.15,4.16.41.3.92.44,1.54.44,1.79,0,2.55-1.37,2.55-4.64,0-1.31-.11-2.26-.33-2.98Z" stroke-width="0"/><path d="m55.18,92.61c-.5-.85-.7-1.2-1.2-2.11-1.28-2.31-1.66-2.94-2.13-3.14-.13-.06-.24-.09-.41-.11v5.36h-2.53v-12.85h4.79c2.27,0,3.77,1.52,3.77,3.77,0,1.92-1.28,3.51-2.87,3.55.26.2.37.31.54.54.67.83,2.63,4.18,3.09,4.99h-3.05Zm-1.35-10.6c-.3-.11-.83-.18-1.46-.18h-.92v3.48h.87c1.11,0,1.59-.11,1.94-.43.31-.3.5-.76.5-1.29,0-.8-.31-1.35-.92-1.57Z" stroke-width="0"/><path d="m63.55,92.89c-1.46,0-3.09-.42-4.38-1.17l.96-2.02c1.2.63,2.24,1.04,3.53,1.04,1.48,0,2.26-.61,2.26-1.76,0-.83-.54-1.35-1.68-1.67l-1.42-.39c-1.28-.35-2.07-.85-2.53-1.63-.35-.57-.54-1.24-.54-1.96,0-2.35,1.89-3.98,4.6-3.98,1.57,0,3.16.48,4.29,1.29l-1.22,1.85c-1.17-.7-2.03-.98-3-.98-1.05,0-1.79.61-1.79,1.48,0,.67.35,1,1.42,1.29l1.55.43c2.11.57,3.25,1.92,3.25,3.83,0,2.61-2.11,4.33-5.31,4.33Z" stroke-width="0"/><path d="m81.53,92.61l-.91-3.05h-3.77l-.91,3.05h-2.7l4.22-12.89h2.79l4.05,12.89h-2.77Zm-2.24-7.79l-.52-2.28c-.07.3-.39,1.63-.61,2.48-.24.92-.41,1.54-.68,2.39h2.52c-.09-.28-.5-1.7-.7-2.59Z" stroke-width="0"/><path d="m90.65,92.83c-1.78,0-3.14-.57-4.2-1.78-1.04-1.17-1.55-2.72-1.55-4.61,0-1.61.28-2.88.87-3.99,1-1.87,2.85-2.98,4.92-2.98,1.28,0,2.55.41,3.25,1.02l-1.17,1.76c-.65-.48-1.33-.72-2.05-.72-.87,0-1.72.42-2.18,1.11-.5.74-.72,1.81-.72,3.31,0,1.76.15,2.74.54,3.44.52.94,1.37,1.44,2.48,1.44.76,0,1.44-.22,2.2-.83l1.18,1.63c-1.02.83-2.11,1.2-3.57,1.2Z" stroke-width="0"/><path d="m103.13,92.61l-.91-3.05h-3.77l-.91,3.05h-2.7l4.22-12.89h2.79l4.05,12.89h-2.77Zm-2.24-7.79l-.52-2.28c-.07.3-.39,1.63-.61,2.48-.24.92-.41,1.54-.68,2.39h2.51c-.09-.28-.5-1.7-.7-2.59Z" stroke-width="0"/><path d="m115.34,90.69c-.78,1.05-1.92,1.76-3.12,1.85-.48.04-1.09.07-1.85.07h-3.13v-12.85h2.59c.74,0,1.72.04,2.24.07,1.09.09,2.03.5,2.81,1.28,1.18,1.17,1.76,2.81,1.76,5.12,0,1.76-.43,3.29-1.29,4.46Zm-2.26-7.82c-.43-.7-1.02-1.07-2.04-1.07h-1.18v8.71h1.39c1.7,0,2.48-1.31,2.48-4.03,0-1.5-.13-2.76-.65-3.61Z" stroke-width="0"/><path d="m118.86,92.61v-12.85h7.32l-.33,2.11h-4.37v2.98h3.64v2.11h-3.64v3.44h4.86v2.22h-7.49Z" stroke-width="0"/><path d="m138.58,92.61l-.48-6.86c-.06-.81-.09-1.46-.09-2.14-.15.74-.26,1.2-.48,1.98l-2.03,7.03h-2.2l-1.83-6.75c-.17-.63-.39-1.54-.52-2.27,0,.76-.04,1.52-.09,2.31l-.44,6.71h-2.57l1.2-12.85h3.31l1.68,6.44c.24.92.33,1.37.44,2.03.11-.67.26-1.33.46-2.09l1.74-6.38h3.29l1.15,12.85h-2.53Z" stroke-width="0"/><path d="m148.27,87.32v5.29h-2.7v-5.29l-4-7.56h3.11l1.65,3.51c.33.7.5,1.17.65,1.65.15-.37.41-1,.68-1.61l1.66-3.55h3.05l-4.11,7.56Z" stroke-width="0"/></svg>