<?xml version="1.0" encoding="UTF-8"?>
<svg xmlns="http://www.w3.org/2000/svg" viewBox="0 0 370 200">
  <defs>
    <style>
      .c {
        fill: #fff;
      }

      .c, .d {
        stroke-width: 0px;
      }

      .d {
        fill: #000000;
      }
    </style>
  </defs>
  <g id="a" data-name="Layer 2">
    <rect class="d" width="370" height="200"/>
  </g>
  <g id="b" data-name="Layer 1">
    <g>
      <path class="c" d="m57.14,119.68l-1.82,8.93h2.98l1.82-7.94,16.71-62.19h33.08l-8.6,62.19-1.65,7.94h2.98l1.98-8.93,16.71-63.18,17.04,4.14-22,79.89h-33.25l9.76-72.12h-2.98l-19.02,72.12h-32.42l9.43-82.04h17.37l-8.1,61.2Z"/>
      <path class="c" d="m222.71,110.42c-3.09,9.82-8.57,17.67-16.46,23.57-7.88,5.9-18.44,8.85-31.68,8.85-4.85,0-9.43-.77-13.73-2.32-4.3-1.54-8.05-3.86-11.25-6.95-3.2-3.09-5.71-6.92-7.53-11.5-1.82-4.57-2.73-9.9-2.73-15.96,0-6.84,1.18-13.29,3.56-19.35,2.37-6.06,5.81-11.36,10.34-15.88s9.98-8.11,16.38-10.75c6.39-2.65,13.67-3.97,21.83-3.97,5.96,0,11.19.88,15.71,2.65,4.52,1.77,8.27,4.16,11.25,7.19,2.98,3.03,5.24,6.59,6.78,10.67,1.54,4.08,2.32,8.38,2.32,12.9l-21.17,4.13c0-5.62-1.41-9.98-4.22-13.07-2.81-3.09-7.36-4.63-13.65-4.63-3.97,0-7.64.74-11,2.23-3.37,1.49-6.29,3.53-8.77,6.12-2.48,2.59-4.41,5.62-5.79,9.1-1.38,3.47-2.07,7.2-2.07,11.16,0,6.29,1.65,10.92,4.96,13.89,3.31,2.98,7.5,4.47,12.57,4.47,6.95,0,12.35-1.54,16.21-4.63,3.86-3.09,6.78-7.44,8.77-13.07l19.35,5.13Z"/>
      <path class="c" d="m275.14,78.33h-23.32v-19.85h27.62l3.64-16.87c.44-2.32,1.32-4.52,2.65-6.62,1.32-2.09,2.89-3.89,4.71-5.38,1.82-1.49,3.86-2.67,6.12-3.56,2.26-.88,4.55-1.32,6.86-1.32h29.11v19.85h-24.81c-2.98,0-4.8,1.65-5.46,4.96l-1.99,8.93h27.95v19.85h-32.25l-18.36,82.04c-1.21,5.4-3.47,9.29-6.78,11.66-3.31,2.37-6.89,3.56-10.75,3.56-3.2,0-6.31-.74-9.34-2.23-3.03-1.49-5.38-3.61-7.03-6.37l-10.42-16.71,16.04-9.76,7.28,12.57,1.99-.33,16.54-74.43Z"/>
    </g>
  </g>
</svg>